<svg width="158" height="366" viewBox="0 0 158 366" fill="none" xmlns="http://www.w3.org/2000/svg">
<circle cx="7.48807" cy="7.83316" r="7.03213" fill="#17255F"/>
<circle cx="7.48807" cy="46.7804" r="7.03213" fill="#17255F"/>
<circle cx="7.48807" cy="85.7276" r="7.03213" fill="#17255F"/>
<circle cx="7.48807" cy="124.675" r="7.03213" fill="#17255F"/>
<circle cx="7.48807" cy="163.622" r="7.03213" fill="#17255F"/>
<circle cx="7.48807" cy="202.569" r="7.03213" fill="#17255F"/>
<circle cx="7.48807" cy="241.516" r="7.03213" fill="#17255F"/>
<circle cx="7.48807" cy="280.464" r="7.03213" fill="#17255F"/>
<circle cx="7.48807" cy="319.411" r="7.03213" fill="#17255F"/>
<circle cx="7.48807" cy="358.358" r="7.03213" fill="#17255F"/>
<circle cx="31.2892" cy="7.83316" r="7.03213" fill="#17255F"/>
<circle cx="31.2891" cy="46.7804" r="7.03213" fill="#17255F"/>
<circle cx="31.2891" cy="85.7276" r="7.03213" fill="#17255F"/>
<circle cx="31.2891" cy="124.675" r="7.03213" fill="#17255F"/>
<circle cx="31.2891" cy="163.622" r="7.03213" fill="#17255F"/>
<circle cx="31.2891" cy="202.569" r="7.03213" fill="#17255F"/>
<circle cx="31.2891" cy="241.516" r="7.03213" fill="#17255F"/>
<circle cx="31.2891" cy="280.464" r="7.03213" fill="#17255F"/>
<circle cx="31.2891" cy="319.411" r="7.03213" fill="#17255F"/>
<circle cx="31.2891" cy="358.358" r="7.03213" fill="#17255F"/>
<circle cx="55.0902" cy="7.83316" r="7.03213" fill="#17255F"/>
<circle cx="55.0902" cy="46.7804" r="7.03213" fill="#17255F"/>
<circle cx="55.0902" cy="85.7276" r="7.03213" fill="#17255F"/>
<circle cx="55.0902" cy="124.675" r="7.03213" fill="#17255F"/>
<circle cx="55.0902" cy="163.622" r="7.03213" fill="#17255F"/>
<circle cx="55.0902" cy="202.569" r="7.03213" fill="#17255F"/>
<circle cx="55.0902" cy="241.516" r="7.03213" fill="#17255F"/>
<circle cx="55.0902" cy="280.464" r="7.03213" fill="#17255F"/>
<circle cx="55.0902" cy="319.411" r="7.03213" fill="#17255F"/>
<circle cx="55.0902" cy="358.358" r="7.03213" fill="#17255F"/>
<circle cx="78.8912" cy="7.83316" r="7.03213" fill="#17255F"/>
<circle cx="78.8913" cy="46.7804" r="7.03213" fill="#17255F"/>
<circle cx="78.8913" cy="85.7276" r="7.03213" fill="#17255F"/>
<circle cx="78.8913" cy="124.675" r="7.03213" fill="#17255F"/>
<circle cx="78.8913" cy="163.622" r="7.03213" fill="#17255F"/>
<circle cx="78.8913" cy="202.569" r="7.03213" fill="#17255F"/>
<circle cx="78.8913" cy="241.516" r="7.03213" fill="#17255F"/>
<circle cx="78.8913" cy="280.464" r="7.03213" fill="#17255F"/>
<circle cx="78.8913" cy="319.411" r="7.03213" fill="#17255F"/>
<circle cx="78.8913" cy="358.358" r="7.03213" fill="#17255F"/>
<circle cx="102.692" cy="7.83316" r="7.03213" fill="#17255F"/>
<circle cx="102.692" cy="46.7804" r="7.03213" fill="#17255F"/>
<circle cx="102.692" cy="85.7276" r="7.03213" fill="#17255F"/>
<circle cx="102.692" cy="124.675" r="7.03213" fill="#17255F"/>
<circle cx="102.692" cy="163.622" r="7.03213" fill="#17255F"/>
<circle cx="102.692" cy="202.569" r="7.03213" fill="#17255F"/>
<circle cx="102.692" cy="241.516" r="7.03213" fill="#17255F"/>
<circle cx="102.692" cy="280.464" r="7.03213" fill="#17255F"/>
<circle cx="102.692" cy="319.411" r="7.03213" fill="#17255F"/>
<circle cx="102.692" cy="358.358" r="7.03213" fill="#17255F"/>
<circle cx="126.493" cy="7.83316" r="7.03213" fill="#17255F"/>
<circle cx="126.493" cy="46.7804" r="7.03213" fill="#17255F"/>
<circle cx="126.493" cy="85.7276" r="7.03213" fill="#17255F"/>
<circle cx="126.493" cy="124.675" r="7.03213" fill="#17255F"/>
<circle cx="126.493" cy="163.622" r="7.03213" fill="#17255F"/>
<circle cx="126.493" cy="202.569" r="7.03213" fill="#17255F"/>
<circle cx="126.493" cy="241.516" r="7.03213" fill="#17255F"/>
<circle cx="126.493" cy="280.464" r="7.03213" fill="#17255F"/>
<circle cx="126.493" cy="319.411" r="7.03213" fill="#17255F"/>
<circle cx="126.493" cy="358.358" r="7.03213" fill="#17255F"/>
<circle cx="150.295" cy="7.83316" r="7.03213" fill="#17255F"/>
<circle cx="150.294" cy="46.7804" r="7.03213" fill="#17255F"/>
<circle cx="150.294" cy="85.7276" r="7.03213" fill="#17255F"/>
<circle cx="150.294" cy="124.675" r="7.03213" fill="#17255F"/>
<circle cx="150.294" cy="163.622" r="7.03213" fill="#17255F"/>
<circle cx="150.294" cy="202.569" r="7.03213" fill="#17255F"/>
<circle cx="150.294" cy="241.516" r="7.03213" fill="#17255F"/>
<circle cx="150.294" cy="280.464" r="7.03213" fill="#17255F"/>
<circle cx="150.294" cy="319.411" r="7.03213" fill="#17255F"/>
<circle cx="150.294" cy="358.358" r="7.03213" fill="#17255F"/>
</svg>
