<svg width="38" height="38" viewBox="0 0 38 38" fill="none" xmlns="http://www.w3.org/2000/svg">
<path d="M19.0001 24.0001C19.989 24.0001 20.9557 23.7068 21.7779 23.1574C22.6002 22.608 23.241 21.8271 23.6195 20.9135C23.9979 19.9999 24.0969 18.9945 23.904 18.0246C23.7111 17.0547 23.2349 16.1638 22.5356 15.4645C21.8364 14.7653 20.9454 14.2891 19.9755 14.0962C19.0056 13.9032 18.0003 14.0022 17.0867 14.3807C16.173 14.7591 15.3921 15.4 14.8427 16.2222C14.2933 17.0445 14.0001 18.0112 14.0001 19.0001C14.0014 20.3258 14.5286 21.5968 15.466 22.5342C16.4034 23.4715 17.6744 23.9988 19.0001 24.0001ZM19.0001 17.3334C19.3297 17.3334 19.652 17.4312 19.926 17.6143C20.2001 17.7974 20.4137 18.0577 20.5399 18.3623C20.666 18.6668 20.699 19.0019 20.6347 19.3252C20.5704 19.6485 20.4117 19.9455 20.1786 20.1786C19.9455 20.4117 19.6485 20.5704 19.3252 20.6347C19.0019 20.699 18.6668 20.666 18.3623 20.5399C18.0577 20.4137 17.7974 20.2001 17.6143 19.926C17.4312 19.652 17.3334 19.3297 17.3334 19.0001C17.3334 18.5581 17.509 18.1341 17.8216 17.8216C18.1341 17.509 18.5581 17.3334 19.0001 17.3334ZM37.3334 19.0001C37.3334 19.4421 37.1578 19.866 36.8453 20.1786C36.5327 20.4912 36.1088 20.6667 35.6667 20.6667H33.9001C33.7534 22.0256 33.4197 23.3576 32.9084 24.6251C32.8312 24.8345 32.7126 25.0263 32.5598 25.1891C32.407 25.3518 32.223 25.4822 32.0189 25.5725C31.8147 25.6628 31.5945 25.7112 31.3713 25.7147C31.148 25.7183 30.9264 25.6769 30.7194 25.5932C30.5125 25.5094 30.3245 25.385 30.1666 25.2271C30.0087 25.0693 29.8841 24.8814 29.8002 24.6745C29.7163 24.4676 29.6749 24.246 29.6783 24.0228C29.6817 23.7996 29.7299 23.5793 29.8201 23.3751C30.1683 22.5048 30.4089 21.5953 30.5368 20.6667H29.0001C28.5581 20.6667 28.1341 20.4912 27.8216 20.1786C27.509 19.866 27.3334 19.4421 27.3334 19.0001C27.3334 18.5581 27.509 18.1341 27.8216 17.8216C28.1341 17.509 28.5581 17.3334 29.0001 17.3334H30.5351C30.4071 16.4067 30.1671 15.4989 29.8201 14.6301C29.6543 14.2201 29.6582 13.7611 29.8309 13.354C30.0036 12.9468 30.3309 12.625 30.7409 12.4592C31.1509 12.2935 31.6099 12.2974 32.017 12.4701C32.4242 12.6428 32.746 12.9701 32.9118 13.3801C33.4211 14.6462 33.7537 15.9765 33.9001 17.3334H35.6667C36.1088 17.3334 36.5327 17.509 36.8453 17.8216C37.1578 18.1341 37.3334 18.5581 37.3334 19.0001ZM10.6667 19.0001C10.6667 19.4421 10.4912 19.866 10.1786 20.1786C9.86603 20.4912 9.44211 20.6667 9.00008 20.6667H7.46508C7.5929 21.5953 7.83357 22.5048 8.18175 23.3751C8.26556 23.5783 8.30835 23.7961 8.30764 24.0159C8.30694 24.2357 8.26276 24.4532 8.17764 24.6559C8.09253 24.8586 7.96816 25.0424 7.8117 25.1968C7.65524 25.3512 7.46978 25.4732 7.266 25.5556C7.06222 25.638 6.84415 25.6793 6.62434 25.6771C6.40453 25.6749 6.18733 25.6293 5.98523 25.5428C5.78314 25.4563 5.60016 25.3307 5.44681 25.1732C5.29347 25.0157 5.1728 24.8294 5.09175 24.6251C4.58047 23.3576 4.24677 22.0256 4.10008 20.6667H2.33341C1.89139 20.6667 1.46746 20.4912 1.1549 20.1786C0.842343 19.866 0.666748 19.4421 0.666748 19.0001C0.666748 18.5581 0.842343 18.1341 1.1549 17.8216C1.46746 17.509 1.89139 17.3334 2.33341 17.3334H4.10008C4.24677 15.9746 4.58047 14.6426 5.09175 13.3751C5.16901 13.1656 5.28757 12.9738 5.44037 12.8111C5.59318 12.6483 5.77713 12.5179 5.9813 12.4276C6.18547 12.3374 6.4057 12.289 6.62891 12.2854C6.85213 12.2819 7.07378 12.3232 7.28072 12.407C7.48766 12.4907 7.67566 12.6152 7.83357 12.773C7.99147 12.9308 8.11607 13.1188 8.19995 13.3256C8.28384 13.5325 8.3253 13.7542 8.32189 13.9774C8.31848 14.2006 8.27025 14.4209 8.18008 14.6251C7.8319 15.4953 7.59123 16.4048 7.46341 17.3334H9.00008C9.44211 17.3334 9.86603 17.509 10.1786 17.8216C10.4912 18.1341 10.6667 18.5581 10.6667 19.0001ZM25.5451 30.7384C25.6274 30.9413 25.6689 31.1584 25.6672 31.3773C25.6654 31.5962 25.6206 31.8127 25.5351 32.0142C25.4497 32.2158 25.3253 32.3985 25.1692 32.5519C25.013 32.7054 24.8281 32.8265 24.6251 32.9084C23.3574 33.4189 22.0254 33.7526 20.6667 33.9001V35.6667C20.6667 36.1088 20.4912 36.5327 20.1786 36.8453C19.866 37.1578 19.4421 37.3334 19.0001 37.3334C18.5581 37.3334 18.1341 37.1578 17.8216 36.8453C17.509 36.5327 17.3334 36.1088 17.3334 35.6667V33.9001C15.9742 33.7528 14.6416 33.4192 13.3734 32.9084C12.9773 32.7335 12.6648 32.4113 12.5021 32.01C12.3394 31.6087 12.3392 31.1598 12.5017 30.7584C12.6641 30.3571 12.9765 30.0346 13.3725 29.8595C13.7685 29.6844 14.2171 29.6702 14.6234 29.8201C15.4945 30.1664 16.4045 30.4054 17.3334 30.5317V29.0001C17.3334 28.5581 17.509 28.1341 17.8216 27.8216C18.1341 27.509 18.5581 27.3334 19.0001 27.3334C19.4421 27.3334 19.866 27.509 20.1786 27.8216C20.4912 28.1341 20.6667 28.5581 20.6667 29.0001V30.5334C21.5952 30.4057 22.5046 30.1656 23.3751 29.8184C23.7848 29.6527 24.2437 29.6565 24.6506 29.829C25.0576 30.0015 25.3793 30.3287 25.5451 30.7384ZM25.5451 7.26175C25.4632 7.46478 25.342 7.64966 25.1886 7.80582C25.0352 7.96197 24.8524 8.08634 24.6509 8.17179C24.4493 8.25725 24.2329 8.30211 24.014 8.30382C23.7951 8.30553 23.5779 8.26405 23.3751 8.18175C22.5046 7.83452 21.5952 7.59442 20.6667 7.46675V9.00008C20.6667 9.44211 20.4912 9.86603 20.1786 10.1786C19.866 10.4912 19.4421 10.6667 19.0001 10.6667C18.5581 10.6667 18.1341 10.4912 17.8216 10.1786C17.509 9.86603 17.3334 9.44211 17.3334 9.00008V7.46675C16.405 7.59442 15.4955 7.83452 14.6251 8.18175C14.216 8.34401 13.7594 8.3379 13.3548 8.16475C12.9502 7.99161 12.6306 7.66548 12.4655 7.25752C12.3005 6.84957 12.3035 6.3929 12.4739 5.98716C12.6443 5.58142 12.9683 5.25954 13.3751 5.09175C14.6432 4.58357 15.9751 4.25213 17.3334 4.10675V2.33341C17.3334 1.89139 17.509 1.46746 17.8216 1.1549C18.1341 0.842343 18.5581 0.666748 19.0001 0.666748C19.4421 0.666748 19.866 0.842343 20.1786 1.1549C20.4912 1.46746 20.6667 1.89139 20.6667 2.33341V4.10675C22.0257 4.25198 23.3581 4.58342 24.6267 5.09175C24.8296 5.17381 25.0143 5.29506 25.1703 5.44857C25.3263 5.60207 25.4505 5.78482 25.5358 5.98637C25.6211 6.18791 25.6658 6.40429 25.6674 6.62313C25.669 6.84197 25.6274 7.05898 25.5451 7.26175Z" fill="white"/>
</svg>
