<svg width="40" height="40" viewBox="0 0 40 40" fill="none" xmlns="http://www.w3.org/2000/svg">
<path d="M22.1667 27.1667L21.6667 27.6667V21.6667C21.6667 20.6667 21 20 20 20C19 20 18.3333 20.6667 18.3333 21.6667V27.6667L17.8333 27.1667C17.1667 26.5 16.1667 26.5 15.5 27.1667C14.8333 27.8333 14.8333 28.8333 15.5 29.5L18.8333 32.8333C19 33 19.1667 33.1667 19.3333 33.1667C19.5 33.3333 19.8333 33.3333 20 33.3333C20.1667 33.3333 20.5 33.3333 20.6667 33.1667C20.8333 33 21 33 21.1667 32.8333L24.5 29.5C25.1667 28.8333 25.1667 27.8333 24.5 27.1667C23.8333 26.5 22.8333 26.5 22.1667 27.1667Z" fill="black"/>
<path d="M32.6667 16C32.1667 14.8333 31.5 13.6666 30.5 12.8333C28.5 10.8333 25.6667 9.83329 22.8334 10.1666C22.6667 9.83329 22.3334 9.66663 22.1667 9.49996C20.6667 7.66663 18.3334 6.66663 15.8334 6.66663C13.3334 6.66663 11 7.66663 9.33337 9.33329C7.66671 11 6.66671 13.3333 6.66671 15.8333V16.3333C6.33337 16.6666 5.83337 16.8333 5.50004 17.3333C4.00004 18.6666 3.33337 20.6666 3.33337 22.6666C3.33337 26.6666 6.66671 30 10.8334 30C11.8334 30 12.5 29.3333 12.5 28.3333C12.5 27.3333 11.8334 26.6666 10.8334 26.6666C8.50004 26.6666 6.66671 24.8333 6.66671 22.5C6.66671 21.3333 7.16671 20.3333 7.83337 19.5C8.16671 19.1666 8.66671 18.8333 9.00004 18.6666C9.66671 18.3333 10.1667 17.6666 10 16.8333V15.8333C10 14.3333 10.6667 12.8333 11.6667 11.6666C13.8334 9.49996 17.6667 9.49996 19.8334 11.6666C20.1667 12 20.5 12.3333 20.6667 12.8333C21 13.5 21.8334 13.6666 22.5 13.5C23.1667 13.3333 23.6667 13.3333 24.1667 13.3333C25.6667 13.3333 27.1667 14 28.3334 15C29 15.6666 29.5 16.5 29.8334 17.5C30 18 30.3334 18.3333 30.8334 18.6666C32.3334 19.3333 33.3334 20.8333 33.3334 22.5C33.3334 23.6666 32.8334 24.6666 32.1667 25.5C31.3334 26.3333 30.3334 26.6666 29.1667 26.6666C28.1667 26.6666 27.5 27.3333 27.5 28.3333C27.5 29.3333 28.1667 30 29.1667 30C31.1667 30 33 29.1666 34.5 27.8333C36 26.5 36.6667 24.5 36.6667 22.5C36.6667 19.6666 35.1667 17.1666 32.6667 16Z" fill="black"/>
</svg>
