<svg width="166" height="385" viewBox="0 0 166 385" fill="none" xmlns="http://www.w3.org/2000/svg">
<circle cx="8.02866" cy="7.41312" r="7.41312" fill="#47D5AA"/>
<circle cx="8.02872" cy="48.4704" r="7.41312" fill="#47D5AA"/>
<circle cx="8.02872" cy="89.5277" r="7.41312" fill="#47D5AA"/>
<circle cx="8.02872" cy="130.585" r="7.41312" fill="#47D5AA"/>
<circle cx="8.02872" cy="171.642" r="7.41312" fill="#47D5AA"/>
<circle cx="8.02872" cy="212.7" r="7.41312" fill="#47D5AA"/>
<circle cx="8.02872" cy="253.757" r="7.41312" fill="#47D5AA"/>
<circle cx="8.02872" cy="294.814" r="7.41312" fill="#47D5AA"/>
<circle cx="8.02872" cy="335.872" r="7.41312" fill="#47D5AA"/>
<circle cx="8.02872" cy="376.929" r="7.41312" fill="#47D5AA"/>
<circle cx="33.1193" cy="7.41312" r="7.41312" fill="#47D5AA"/>
<circle cx="33.1193" cy="48.4704" r="7.41312" fill="#47D5AA"/>
<circle cx="33.1193" cy="89.5277" r="7.41312" fill="#47D5AA"/>
<circle cx="33.1193" cy="130.585" r="7.41312" fill="#47D5AA"/>
<circle cx="33.1193" cy="171.642" r="7.41312" fill="#47D5AA"/>
<circle cx="33.1193" cy="212.7" r="7.41312" fill="#47D5AA"/>
<circle cx="33.1193" cy="253.757" r="7.41312" fill="#47D5AA"/>
<circle cx="33.1193" cy="294.814" r="7.41312" fill="#47D5AA"/>
<circle cx="33.1193" cy="335.872" r="7.41312" fill="#47D5AA"/>
<circle cx="33.1193" cy="376.929" r="7.41312" fill="#47D5AA"/>
<circle cx="58.2098" cy="7.41312" r="7.41312" fill="#47D5AA"/>
<circle cx="58.2099" cy="48.4704" r="7.41312" fill="#47D5AA"/>
<circle cx="58.2099" cy="89.5277" r="7.41312" fill="#47D5AA"/>
<circle cx="58.2099" cy="130.585" r="7.41312" fill="#47D5AA"/>
<circle cx="58.2099" cy="171.642" r="7.41312" fill="#47D5AA"/>
<circle cx="58.2099" cy="212.7" r="7.41312" fill="#47D5AA"/>
<circle cx="58.2099" cy="253.757" r="7.41312" fill="#47D5AA"/>
<circle cx="58.2099" cy="294.814" r="7.41312" fill="#47D5AA"/>
<circle cx="58.2099" cy="335.872" r="7.41312" fill="#47D5AA"/>
<circle cx="58.2099" cy="376.929" r="7.41312" fill="#47D5AA"/>
<circle cx="83.3004" cy="7.41312" r="7.41312" fill="#47D5AA"/>
<circle cx="83.3005" cy="48.4704" r="7.41312" fill="#47D5AA"/>
<circle cx="83.3005" cy="89.5277" r="7.41312" fill="#47D5AA"/>
<circle cx="83.3005" cy="130.585" r="7.41312" fill="#47D5AA"/>
<circle cx="83.3005" cy="171.642" r="7.41312" fill="#47D5AA"/>
<circle cx="83.3005" cy="212.7" r="7.41312" fill="#47D5AA"/>
<circle cx="83.3005" cy="253.757" r="7.41312" fill="#47D5AA"/>
<circle cx="83.3005" cy="294.814" r="7.41312" fill="#47D5AA"/>
<circle cx="83.3005" cy="335.872" r="7.41312" fill="#47D5AA"/>
<circle cx="83.3005" cy="376.929" r="7.41312" fill="#47D5AA"/>
<circle cx="108.391" cy="7.41312" r="7.41312" fill="#47D5AA"/>
<circle cx="108.391" cy="48.4704" r="7.41312" fill="#47D5AA"/>
<circle cx="108.391" cy="89.5277" r="7.41312" fill="#47D5AA"/>
<circle cx="108.391" cy="130.585" r="7.41312" fill="#47D5AA"/>
<circle cx="108.391" cy="171.642" r="7.41312" fill="#47D5AA"/>
<circle cx="108.391" cy="212.7" r="7.41312" fill="#47D5AA"/>
<circle cx="108.391" cy="253.757" r="7.41312" fill="#47D5AA"/>
<circle cx="108.391" cy="294.814" r="7.41312" fill="#47D5AA"/>
<circle cx="108.391" cy="335.872" r="7.41312" fill="#47D5AA"/>
<circle cx="108.391" cy="376.929" r="7.41312" fill="#47D5AA"/>
<circle cx="133.482" cy="7.41312" r="7.41312" fill="#47D5AA"/>
<circle cx="133.482" cy="48.4704" r="7.41312" fill="#47D5AA"/>
<circle cx="133.482" cy="89.5277" r="7.41312" fill="#47D5AA"/>
<circle cx="133.482" cy="130.585" r="7.41312" fill="#47D5AA"/>
<circle cx="133.482" cy="171.642" r="7.41312" fill="#47D5AA"/>
<circle cx="133.482" cy="212.7" r="7.41312" fill="#47D5AA"/>
<circle cx="133.482" cy="253.757" r="7.41312" fill="#47D5AA"/>
<circle cx="133.482" cy="294.814" r="7.41312" fill="#47D5AA"/>
<circle cx="133.482" cy="335.872" r="7.41312" fill="#47D5AA"/>
<circle cx="133.482" cy="376.929" r="7.41312" fill="#47D5AA"/>
<circle cx="158.572" cy="7.41312" r="7.41312" fill="#47D5AA"/>
<circle cx="158.572" cy="48.4704" r="7.41312" fill="#47D5AA"/>
<circle cx="158.572" cy="89.5277" r="7.41312" fill="#47D5AA"/>
<circle cx="158.572" cy="130.585" r="7.41312" fill="#47D5AA"/>
<circle cx="158.572" cy="171.642" r="7.41312" fill="#47D5AA"/>
<circle cx="158.572" cy="212.7" r="7.41312" fill="#47D5AA"/>
<circle cx="158.572" cy="253.757" r="7.41312" fill="#47D5AA"/>
<circle cx="158.572" cy="294.814" r="7.41312" fill="#47D5AA"/>
<circle cx="158.572" cy="335.872" r="7.41312" fill="#47D5AA"/>
<circle cx="158.572" cy="376.929" r="7.41312" fill="#47D5AA"/>
</svg>
