<svg width="21" height="15" viewBox="0 0 21 15" fill="none" xmlns="http://www.w3.org/2000/svg">
<path d="M18.9374 6.09364H5.45151L8.68588 2.87333C8.95069 2.60853 9.09945 2.24938 9.09945 1.87489C9.09945 1.50041 8.95069 1.14126 8.68588 0.876456C8.42108 0.611654 8.06193 0.462891 7.68745 0.462891C7.31296 0.462891 6.95381 0.611654 6.68901 0.876456L1.06401 6.50146C0.935982 6.6352 0.835625 6.7929 0.768696 6.96552C0.628045 7.30789 0.628045 7.6919 0.768696 8.03427C0.835625 8.20689 0.935982 8.36459 1.06401 8.49833L6.68901 14.1233C6.81974 14.2551 6.97527 14.3598 7.14664 14.4311C7.318 14.5025 7.5018 14.5393 7.68745 14.5393C7.87309 14.5393 8.05689 14.5025 8.22826 14.4311C8.39962 14.3598 8.55516 14.2551 8.68588 14.1233C8.81769 13.9926 8.92231 13.8371 8.9937 13.6657C9.06509 13.4943 9.10185 13.3105 9.10185 13.1249C9.10185 12.9393 9.06509 12.7554 8.9937 12.5841C8.92231 12.4127 8.81769 12.2572 8.68588 12.1265L5.45151 8.90614H18.9374C19.3104 8.90614 19.6681 8.75799 19.9318 8.49426C20.1955 8.23054 20.3437 7.87285 20.3437 7.49989C20.3437 7.12693 20.1955 6.76925 19.9318 6.50552C19.6681 6.2418 19.3104 6.09364 18.9374 6.09364Z" fill="black"/>
</svg>
