<svg width="30" height="24" viewBox="0 0 30 24" fill="none" xmlns="http://www.w3.org/2000/svg">
<path d="M25.6655 20.3085L6.69149 1.33448C6.07316 0.716145 5.07064 0.716145 4.45231 1.33448L4.33446 1.45233C3.71613 2.07066 3.71613 3.07317 4.33446 3.6915L23.3085 22.6655C23.9268 23.2839 24.9293 23.2839 25.5477 22.6655L25.6655 22.5477C26.2838 21.9293 26.2838 20.9268 25.6655 20.3085Z" fill="black"/>
<path d="M23.0936 1.11959L4.11959 20.0936C3.50126 20.7119 3.50126 21.7145 4.11959 22.3328L4.23744 22.4506C4.85577 23.069 5.85828 23.069 6.47661 22.4506L25.4506 3.47661C26.069 2.85828 26.069 1.85577 25.4506 1.23744L25.3328 1.11959C24.7145 0.501257 23.7119 0.501258 23.0936 1.11959Z" fill="black"/>
<path d="M28.4167 10H1.58333C0.708883 10 0 10.7089 0 11.5833V11.75C0 12.6245 0.708883 13.3333 1.58333 13.3333H28.4167C29.2911 13.3333 30 12.6245 30 11.75V11.5833C30 10.7089 29.2911 10 28.4167 10Z" fill="black"/>
</svg>
